<svg width="141" height="108" viewBox="0 0 141 108" fill="none" xmlns="http://www.w3.org/2000/svg">
<path fill-rule="evenodd" clip-rule="evenodd" d="M83 5C83 2.23858 80.7614 0 78 0H43C40.2386 0 38 2.23858 38 5V31C38 33.7614 40.2386 36 43 36H58C60.7614 36 63 38.2386 63 41V67C63 69.7614 60.7614 72 58 72H50C47.2386 72 45 69.7614 45 67V50C45 47.2386 42.7614 45 40 45H5C2.23858 45 0 47.2386 0 50V76C0 78.7614 2.23858 81 5 81H25C27.7614 81 30 83.2386 30 86V103C30 105.761 32.2386 108 35 108H70C72.7614 108 75 105.761 75 103V77C75 74.2386 77.2386 72 80 72H91C93.7614 72 96 74.2386 96 77V85C96 87.7614 98.2386 90 101 90H136C138.761 90 141 87.7614 141 85V59C141 56.2386 138.761 54 136 54H113C110.239 54 108 51.7614 108 49V41C108 38.2386 105.761 36 103 36H88C85.2386 36 83 33.7614 83 31V5Z" fill="#FCA100"/>
</svg>
